<svg viewBox="0 0 400 400" xmlns="http://www.w3.org/2000/svg">
  <defs></defs>
<!-- Outer circle -->
  <ellipse style="fill: rgb(255, 255, 255); stroke: rgb(0, 0, 0);" cx="200" cy="200" rx="200" ry="200"></ellipse>
<!-- Sector lines -->
  <path style="fill: rgb(255, 255, 255); stroke: rgb(0, 0, 0);" d="M 0 200 L 400 200"></path>
  <path style="fill: rgb(255, 255, 255); stroke: rgb(0, 0, 0);" d="M 200 0 L 200 400"></path>
  <path style="fill: rgb(255, 255, 255); stroke: rgb(0, 0, 0);" d="M 26.794919243112270647255365849413 100 L 373.20508075688772935274463415059 300"></path>
  <path style="fill: rgb(255, 255, 255); stroke: rgb(0, 0, 0);" d="M 100 26.794919243112270647255365849413 L 300 373.20508075688772935274463415059"></path>
  <path style="fill: rgb(255, 255, 255); stroke: rgb(0, 0, 0);" d="M 300 26.794919243112270647255365849413 L 100 373.20508075688772935274463415059"></path>
  <path style="fill: rgb(255, 255, 255); stroke: rgb(0, 0, 0);" d="M 373.20508075688772935274463415059 100 L 26.794919243112270647255365849413 300"></path>
<!-- Sweat (A La La Long) -->
  <ellipse style="fill: rgb(255, 255, 255); stroke: rgb(0, 0, 0);" cx="200" cy="200" rx="120" ry="120"></ellipse>
<!-- Center hole -->
  <ellipse style="fill: rgb(255, 255, 255); stroke: rgb(0, 0, 0);" cx="200" cy="200" rx="3" ry="3"></ellipse>
<!-- 1. label -->
  <text style="white-space: pre; fill: rgb(51, 51, 51); font-family: Arial, sans-serif; font-size: 16.8px; transform-box: fill-box; transform-origin: 79.9211% 44.583%;" x="232.015" y="48.696" transform="matrix(0.964422, 0.264369, -0.264369, 0.964422, -20.328836, 8.200982)">F# / Gь</text>
<!-- 2. label -->
  <text style="white-space: pre; fill: rgb(51, 51, 51); font-family: Arial, sans-serif; font-size: 16.8px; transform-origin: 247.882px 41.994px;" x="232.015" y="48.696" transform="matrix(0.747127, 0.664681, -0.664681, 0.747127, 73.795574, 48.968379)">G</text>
<!-- 3. label -->
  <text style="white-space: pre; fill: rgb(51, 51, 51); font-family: Arial, sans-serif; font-size: 16.8px; transform-origin: 247.882px 41.994px;" x="232.015" y="48.696" transform="matrix(0.232714, 0.972545, -0.972545, 0.232714, 103.771574, 104.124228)">G# / Aь</text>
<!-- 4. label -->
  <text style="white-space: pre; fill: rgb(51, 51, 51); font-family: Arial, sans-serif; font-size: 16.8px; transform-origin: 247.882px 41.994px;" x="232.015" y="48.696" transform="matrix(-0.258539, 0.966001, -0.966001, -0.258539, 105.570165, 208.440666)">A</text>
<!-- 5. label -->
  <text style="white-space: pre; fill: rgb(51, 51, 51); font-family: Arial, sans-serif; font-size: 16.8px; transform-box: fill-box; transform-origin: 48.3636% 83.8003%;" x="232.015" y="48.696" transform="matrix(-0.70654, 0.707673, -0.707673, -0.70654, 51.883291, 258.10664)">A# /Bь</text>
<!-- 6. label -->
  <text style="white-space: pre; fill: rgb(51, 51, 51); font-family: Arial, sans-serif; font-size: 16.8px; transform-origin: 241.617px 49.282px;" x="232.015" y="48.696" transform="matrix(-0.957971, 0.286865, -0.286865, -0.957971, -3.272618, 299.473373)">H</text>
<!-- 7. label -->
  <text style="white-space: pre; fill: rgb(51, 51, 51); font-family: Arial, sans-serif; font-size: 16.8px; transform-origin: 241.617px 49.282px;" x="232.015" y="48.696" transform="matrix(-0.960102, -0.279652, 0.279652, -0.960102, -84.207719, 298.274444)">C</text>
<!-- 8. label -->
  <text style="white-space: pre; fill: rgb(51, 51, 51); font-family: Arial, sans-serif; font-size: 16.8px; transform-origin: 241.617px 49.282px;" x="232.015" y="48.696" transform="matrix(-0.703898, -0.710301, 0.710301, -0.703898, -136.965577, 271.895652)">C# / Dь</text>
<!-- 9. label -->
  <text style="white-space: pre; fill: rgb(51, 51, 51); font-family: Arial, sans-serif; font-size: 16.8px; transform-origin: 241.617px 49.282px;" x="232.015" y="48.696" transform="matrix(-0.23003, -0.973184, 0.973184, -0.23003, -193.320356, 184.965214)">D</text>
<!-- 10. label -->
  <text style="white-space: pre; fill: rgb(51, 51, 51); font-family: Arial, sans-serif; font-size: 16.8px; transform-origin: 241.617px 49.282px;" x="232.015" y="48.696" transform="matrix(0.269891, -0.962891, 0.962891, 0.269891, -192.720994, 128.610425)">D# / Eь</text>
<!-- 11. label -->
  <text style="white-space: pre; fill: rgb(51, 51, 51); font-family: Arial, sans-serif; font-size: 16.8px; transform-origin: 241.617px 49.282px;" x="232.015" y="48.696" transform="matrix(0.678925, -0.734208, 0.734208, 0.678925, -148.955963, 37.483303)">E</text>
<!-- 12. label -->
  <text style="white-space: pre; fill: rgb(51, 51, 51); font-family: Arial, sans-serif; font-size: 16.8px; transform-box: fill-box; transform-origin: 50% 50%;" x="125.899" y="46.297" transform="matrix(0.963864, -0.266394, 0.266394, 0.963864, 25.779328, 1.798547)">F</text>
</svg>
